<svg width="260" height="260" xmlns="http://www.w3.org/2000/svg" xmlns:xlink="http://www.w3.org/1999/xlink" xml:space="preserve" overflow="hidden"><defs><clipPath id="clip0"><rect x="399" y="136" width="260" height="260"/></clipPath></defs><g clip-path="url(#clip0)" transform="translate(-399 -136)"><path d="M461.292 358.083 461.292 173.917 529 173.917 529 230.792 596.708 230.792 596.708 358.083 461.292 358.083ZM545.25 180.688 579.104 214.542 545.25 214.542 545.25 180.688ZM545.25 157.667 445.042 157.667 445.042 374.333 612.958 374.333 612.958 217.25 545.25 157.667Z" fill="#002060"/><path d="M477.542 257.875 580.458 257.875 580.458 268.708 477.542 268.708Z" fill="#002060"/><path d="M477.542 236.208 512.75 236.208 512.75 247.042 477.542 247.042Z" fill="#002060"/><path d="M477.542 279.542 580.458 279.542 580.458 290.375 477.542 290.375Z" fill="#002060"/><path d="M477.542 301.208 580.458 301.208 580.458 312.042 477.542 312.042Z" fill="#002060"/><path d="M477.542 322.875 580.458 322.875 580.458 333.708 477.542 333.708Z" fill="#002060"/></g></svg>