<svg width="96" height="96" xmlns="http://www.w3.org/2000/svg" xmlns:xlink="http://www.w3.org/1999/xlink" xml:space="preserve" overflow="hidden"><defs><clipPath id="clip0"><rect x="365" y="290" width="96" height="96"/></clipPath></defs><g clip-path="url(#clip0)" transform="translate(-365 -290)"><path d="M436 338C436 339.657 434.657 341 433 341L400.24 341 409.12 349.88C410.25 351.092 410.182 352.991 408.97 354.12 407.818 355.194 406.032 355.194 404.88 354.12L390.88 340.12C389.71 338.949 389.71 337.051 390.88 335.88L404.88 321.88C406.092 320.75 407.991 320.818 409.12 322.03 410.194 323.182 410.194 324.968 409.12 326.12L400.24 335 433 335C434.657 335 436 336.343 436 338Z" fill="#002060"/><path d="M375 338C375 358.987 392.013 376 413 376 433.987 376 451 358.987 451 338 451 317.013 433.987 300 413 300 392.013 300 375 317.013 375 338ZM381 338C381 320.327 395.327 306 413 306 430.673 306 445 320.327 445 338 445 355.673 430.673 370 413 370 395.327 370 381 355.673 381 338Z" fill="#002060"/></g></svg>